<?xml version="1.0" encoding="UTF-8"?>
<!DOCTYPE svg PUBLIC "-//W3C//DTD SVG 1.1//EN" "http://www.w3.org/Graphics/SVG/1.1/DTD/svg11.dtd">
<!-- Creator: CorelDRAW 2019 (64-Bit) -->
<svg xmlns="http://www.w3.org/2000/svg" xml:space="preserve" width="31.7918mm" height="35.0676mm" version="1.1" style="shape-rendering:geometricPrecision; text-rendering:geometricPrecision; image-rendering:optimizeQuality; fill-rule:evenodd; clip-rule:evenodd"
viewBox="0 0 2217.95 2446.48"
 xmlns:xlink="http://www.w3.org/1999/xlink">
 <defs>
  <style type="text/css">
   <![CDATA[
    .fil3 {fill:black}
    .fil4 {fill:#784B37}
    .fil0 {fill:#9A5E38}
    .fil7 {fill:#B27F85}
    .fil1 {fill:#D57F47}
    .fil11 {fill:#D76933}
    .fil8 {fill:#D7979E}
    .fil9 {fill:#E5BBBD}
    .fil10 {fill:#F79733}
    .fil2 {fill:#F89B50}
    .fil5 {fill:#FAB276}
    .fil6 {fill:white}
   ]]>
  </style>
 </defs>
 <g id="Layer_x0020_1">
  <metadata id="CorelCorpID_0Corel-Layer"/>
  <g id="_1606309617216">
   <path class="fil0" d="M570.63 2118.48c0,0 105.69,-56.49 123.92,-94.76 15.66,-32.9 58.31,-43.73 29.15,-72.88 -29.15,-29.16 -94.76,-29.16 -94.76,-29.16l0 0 -58.31 196.81 0 0z"/>
   <path class="fil1" d="M537.82 1801.4c0,0 -161.71,-62.2 -197.8,-80.28 -4.19,12.73 -11.56,25.12 -24.52,32.9 -36.45,21.86 -123.92,123.92 -145.79,225.96 -4.44,20.73 -8.87,39.86 -13.13,57.35 71.75,-20.69 177.27,-47.31 231.81,-42.77 87.47,7.29 51.02,-72.89 0,-80.17 -51.03,-7.29 -72.89,-29.16 -29.15,-51.03 41.7,-20.85 162.85,104.12 205.63,273.74 37.25,-43.94 67.09,-125.23 78.64,-142.54 7.38,-11.07 12.88,-18.38 16.52,-22.92 -2.4,-3.31 -4.68,-6.5 -6.96,-9.68 -123.92,-40.71 -115.25,-160.55 -115.25,-160.55l0 0 0 0z"/>
   <path class="fil2" d="M359.25 1863.36c-43.74,21.86 -21.87,43.74 29.15,51.03 51.02,7.28 87.47,87.46 0,80.17 -54.54,-4.54 -160.06,22.08 -231.81,42.77 -16.71,68.56 -30.61,110.3 -30.61,110.3 0,0 102.05,14.58 131.21,29.15 29.16,14.58 225.96,7.29 276.99,-14.57 10.62,-4.56 20.91,-13.56 30.7,-25.11 -42.78,-169.63 -163.93,-294.59 -205.63,-273.74l0 0 0 0z"/>
   <path class="fil3" d="M270.97 1798.09c0,0 -90.1,163.67 -150.22,363.22 0,0 20.18,-309.41 150.22,-363.22l0 0 0 0z"/>
   <path class="fil4" d="M2217.95 1389.57c0,0 -313.43,80.17 -357.17,123.91 -43.74,43.74 -743.48,291.56 -787.21,320.72 -43.74,29.15 -533.21,278.65 -619.57,302.49 -85.5,23.6 -386.32,-10.93 -444.63,32.8 -7.29,5.46 -10.02,13.89 -9.22,24.46 5.58,73.94 184.17,252.52 184.17,252.52 0,0 537.83,-194.43 779.93,-160.36 274.15,38.59 802.05,-183.93 903.84,-167.64 153.2,24.52 332.18,-121 341.97,-237.28 1.86,-22.02 -2.36,-43 -13.97,-61.57 -72.89,-116.63 21.87,-430.05 21.87,-430.05l0 0 0 0z"/>
   <g>
    <g>
     <path class="fil2" d="M1540.06 1426.02c-65.6,43.73 -145.78,51.02 -204.1,94.75 -58.32,43.74 -116.62,72.89 -87.46,7.29 29.15,-65.6 138.48,-138.49 138.48,-138.49 0,0 43.74,-36.45 109.34,-65.61 50.92,-22.63 189.64,-23.3 266.24,-19.06 -0.94,-11.74 44.32,-46.68 61.77,-104.85 21.87,-72.89 87.47,-225.96 21.87,-393.61 -52.67,-134.59 129.51,-255.12 56.3,-444.51 -8.88,-13.75 -18.95,-27.51 -30.25,-41.01 -42.06,-50.29 -101.12,-97.04 -179.12,-126.76 -12.26,-4.67 -23.45,-9.29 -33.85,-13.86 13.73,75.78 53.45,189.17 -2.6,174.22 -109.34,-29.16 -306.15,65.6 -415.48,-29.16 -109.34,-94.75 -36.45,-189.51 65.6,-174.94 102.05,14.58 240.55,-7.29 262.41,0 7.76,2.59 14.55,-1.32 18.85,-8.32 -38.66,-25.92 -55.99,-48.92 -77.61,-67.26 -83.66,-12.31 -221.15,-16.13 -283.82,9.98 -63.89,26.62 -236.64,2.73 -387.64,13.46 -97.45,55.44 -173.61,117.74 -173.61,117.74 0,0 -31.37,15.73 -73.86,46.18 103.17,-27.38 281.15,-89.91 358.13,-89.91 94.76,0 51.03,87.46 -102.04,153.06 -106.86,45.8 -266.93,41.87 -371.25,40.28 -24.04,27.43 -46.7,58.48 -65.37,93.08 19.06,17.78 41.96,35.13 64.88,48.87 72.89,43.74 160.35,80.18 247.83,43.74 87.46,-36.45 218.68,-14.57 284.28,0 65.6,14.58 182.22,-51.02 182.22,-51.02 0,0 -3.1,4.01 -8.39,10.4 35.99,-13.37 71.26,-16.77 66.71,-3.12 -7.3,21.87 -94.76,123.92 -131.21,153.07 -36.44,29.16 -80.17,65.61 -109.33,94.76 -29.16,29.15 167.64,65.6 167.64,65.6 43.74,-14.58 -14.58,43.74 51.02,72.9 65.61,29.15 43.74,43.73 123.91,72.89 80.19,29.15 72.9,131.2 72.9,131.2 -21.86,-43.74 -72.9,-65.6 -72.9,-65.6 0,0 0,51.02 43.74,138.49 43.74,87.46 -58.32,182.23 -43.74,131.19 14.59,-51.02 -72.89,-182.22 -72.89,-182.22 0,0 7.3,87.47 -7.28,160.36 -14.57,72.89 -153.07,65.59 -102.05,14.57 51.03,-51.02 7.3,-240.53 -36.45,-298.84 -43.73,-58.32 -167.64,0 -153.06,43.74 14.58,43.73 -80.17,58.31 -116.62,29.15 -36.45,-29.15 -21.87,21.86 -43.74,43.74 -21.87,21.86 -116.63,-7.29 -80.18,-65.61 36.45,-58.32 -160.36,-65.6 -225.96,-94.76 -65.61,-29.15 -233.25,160.37 -182.23,196.81 51.03,36.45 43.74,123.9 58.32,182.22 14.58,58.32 -51.03,72.89 7.29,138.49 37.65,42.36 11.41,118.1 -60.92,164.53l0 0 9.89 39.57 0 0c0,0 2.97,24.2 -4.63,47.28 36.08,18.08 197.79,80.28 197.79,80.28 0,0 -8.66,119.84 115.26,160.55 -21.82,-30.47 -37.99,-54.99 -45.29,-66.27 -20.67,-14.09 -81.06,-64.73 -44.45,-156.24 43.74,-109.34 51.03,-269.7 102.05,-342.58 51.03,-72.9 43.74,-123.92 43.74,-160.37 0,-36.44 29.15,-94.75 29.15,-72.88 0,21.87 29.15,65.59 36.45,94.75 7.29,29.15 29.15,58.32 65.6,51.02 36.45,-7.29 65.61,-7.29 80.18,-51.02 14.58,-43.73 43.74,-109.33 43.74,-109.33 0,0 -7.29,65.6 7.29,131.2 14.57,65.59 -14.58,87.46 14.57,123.91 29.16,36.45 109.34,225.96 116.63,262.41 5.04,25.19 65.73,99.11 71.5,183.29 2.53,9.01 5.85,20.04 9.93,31.99 28.18,-75.12 63.23,-160.9 71.64,-186.12 14.57,-43.73 58.3,-116.62 43.73,-65.6 -10.51,36.8 -62.74,198.74 -85.56,318.98 10.03,16.76 21.57,30.77 34.54,38.18l0 0 47.98 -26.17 0 0c1.39,-8.26 2.45,-16.58 3.03,-24.85 7.28,-102.04 87.46,-342.59 109.34,-371.74 21.87,-29.15 72.9,-65.6 0,174.94 -72.89,240.54 51.03,291.56 80.18,284.27 29.15,-7.28 65.6,-123.91 58.32,-255.12 -7.29,-131.2 58.31,-174.94 58.31,-174.94 0,0 -51.03,58.32 14.58,298.85 14.59,53.52 -1.53,101.26 -37.53,143.07 24.11,19.53 76.54,54.37 124.15,34.55 -2.89,-84.69 -11.53,-204.98 0.84,-235.93 11.75,-29.37 28.23,-110.74 45.63,-122.19 -65.24,-60.6 -74.13,-171.64 -31.05,-183.95 51.03,-14.58 -14.58,-94.75 21.86,-116.63 29.88,-17.93 133.19,13.09 165.45,-3.24 -58.02,-16.07 -113.34,-27.15 -143.58,-33.2 -72.89,-14.58 -160.36,7.28 -225.96,51.03l0 0 0 0z"/>
     <path class="fil1" d="M1139.17 1309.39c0,0 29.15,36.45 0,65.61 -29.16,29.15 -51.03,51.03 14.57,51.03 65.61,0 -21.87,65.59 -21.87,65.59 0,0 0,51.03 43.74,65.61 43.74,14.58 29.15,43.74 29.15,43.74 0,0 7.3,72.89 -21.86,58.31 -29.16,-14.57 -43.74,-29.15 -58.32,-65.6 -14.58,-36.45 -51.02,-51.03 -51.02,-51.03l0 0 -80.18 -131.2 0 0c0,0 21.87,-87.47 51.03,-87.47 29.15,0 94.75,-14.58 94.75,-14.58l0 0 0 0z"/>
     <path class="fil1" d="M528.71 1316.68c0,0 -29.15,36.45 0,65.59 29.16,29.16 51.03,51.03 -14.57,51.03 -65.61,0 21.86,65.6 21.86,65.6 0,0 0,51.02 -43.74,65.6 -43.74,14.58 -29.15,43.74 -29.15,43.74 0,0 -7.29,72.89 21.87,58.31 29.15,-14.57 43.73,-29.15 58.31,-65.6 14.58,-36.45 51.03,-51.03 51.03,-51.03l0 0 80.17 -131.21 0 0c0,0 -21.86,-87.46 -51.02,-87.46 -29.15,0 -94.76,-14.57 -94.76,-14.57l0 0 0 0z"/>
    </g>
    <g>
     <path class="fil5" d="M1226.63 84.83c62.68,-26.11 200.16,-22.29 283.82,-9.98 -8.41,-7.13 -17.48,-13.56 -28.7,-19.17 -14.58,-7.29 -43.74,-15.49 -81.67,-22.9 -83.33,-16.27 -209.02,-28.68 -315.41,-19.13 -38.87,3.5 -75.16,9.91 -105.87,20.16 -47.58,15.86 -95.86,39.47 -139.82,64.48 151,-10.73 323.75,13.16 387.64,-13.46l0 0 0 0z"/>
     <path class="fil5" d="M1569.22 150.43c-21.86,-7.29 -160.36,14.58 -262.41,0 -102.04,-14.57 -174.94,80.18 -65.6,174.94 109.34,94.76 306.15,0 415.48,29.16 56.05,14.94 16.32,-98.45 2.6,-174.22 -30.17,-13.25 -53.09,-26.04 -71.22,-38.2 -4.3,7 -11.09,10.91 -18.85,8.32l0 0 0 0z"/>
     <path class="fil2" d="M1766.03 1717.58c-4.25,-7.08 -8.5,-8.33 -12.69,-5.57 4.98,4.62 10.3,8.93 15.93,12.91 -0.87,-2.69 -1.93,-5.15 -3.24,-7.34l0 0 0 0z"/>
     <path class="fil2" d="M1842.42 1324.43c18.49,10.95 41.08,26.33 66.05,41.78 -14.11,-18.04 -39.88,-32.13 -66.05,-41.78l0 0 0 0z"/>
     <path class="fil2" d="M1908.47 1366.2c5.62,7.18 9.43,14.97 10.63,23.37 1.31,9.19 -2.4,15.03 -9.49,18.62 55.22,15.3 112.86,35.13 153.72,59.52 6.47,-6.75 12.67,-13.67 18.37,-20.71 -23.41,-14.2 -44.16,-24.18 -60.55,-28.28 -39.08,-9.77 -78.14,-31.17 -112.67,-52.52l0 0 0 0z"/>
     <path class="fil2" d="M1744.15 1411.44c-36.45,21.87 29.16,102.04 -21.86,116.63 -43.09,12.31 -34.19,123.35 31.05,183.95 4.19,-2.76 8.44,-1.51 12.69,5.57 1.31,2.19 2.38,4.65 3.24,7.34 7.98,5.62 16.6,10.53 25.91,14.53 47.94,20.55 94.27,79.7 129.92,136.65 19.69,-42.61 30.98,-49.47 26.79,-103.84 -7.28,-94.76 -18.22,-207.74 18.22,-229.61 24.54,-14.72 62.26,-42.68 93.21,-74.93 -40.86,-24.38 -98.5,-44.22 -153.72,-59.52 -32.26,16.34 -135.57,-14.69 -165.45,3.24l0 0 0 0z"/>
     <path class="fil5" d="M1496.33 1323.97c-65.6,29.16 -109.34,65.61 -109.34,65.61 0,0 -109.34,72.89 -138.48,138.49 -29.15,65.6 29.15,36.45 87.46,-7.29 58.32,-43.74 138.5,-51.03 204.1,-94.75 65.6,-43.74 153.07,-65.61 225.96,-51.03 30.24,6.05 85.55,17.13 143.58,33.2 7.1,-3.59 10.81,-9.43 9.49,-18.62 -1.2,-8.4 -5,-16.19 -10.63,-23.37 -24.97,-15.45 -47.55,-30.82 -66.05,-41.78 -26.69,-9.83 -53.73,-15.04 -69.11,-15.04 -7.36,0 -10.51,-1.51 -10.75,-4.48 -76.59,-4.24 -215.31,-3.57 -266.24,19.06l0 0 0 0z"/>
     <path class="fil2" d="M1773.32 1309.39c15.38,0 42.42,5.21 69.11,15.04 -13.16,-7.79 -24.28,-13.36 -32.66,-15.04 -8.16,-1.63 -25.11,-3.26 -47.2,-4.48 0.24,2.97 3.39,4.48 10.75,4.48l0 0 0 0z"/>
     <path class="fil1" d="M2108.6 1240.14c-7.28,-78.35 -21.86,-160.35 -36.45,-200.44 -27.35,-75.23 -93.21,-439.19 -119.3,-556.11 -1.72,-7.7 -3.26,-14.32 -4.61,-19.73 -7.73,-30.92 -22.79,-66.4 -45.74,-101.92 73.21,189.39 -108.97,309.91 -56.3,444.51 65.6,167.64 0,320.72 -21.87,393.61 -17.45,58.18 -62.71,93.11 -61.77,104.85 22.09,1.22 39.04,2.85 47.2,4.49 8.39,1.67 19.5,7.24 32.66,15.03 26.16,9.64 51.93,23.73 66.05,41.78 34.53,21.35 73.59,42.76 112.67,52.53 16.39,4.1 37.14,14.09 60.55,28.28 7.51,-9.3 14.21,-18.79 19.63,-28.28 14.57,-25.51 14.57,-100.22 7.28,-178.58l0 0 0 0z"/>
     <path class="fil0" d="M1029.84 1724.87c7.28,-65.61 7.28,-87.47 -29.16,-153.07 -36.45,-65.6 -87.46,-174.94 -87.46,-174.94 0,0 14.57,131.2 43.74,211.38 29.15,80.18 -14.58,174.94 -14.58,174.94 0,0 -4.3,119.62 -25.94,182.23l0 0 11.36 0 0 0c0,0 64.76,33.89 134.09,-2.56 -29.62,-62.3 -36.64,-196.58 -32.04,-237.97l0 0 0 0z"/>
     <path class="fil1" d="M1620.24 1892.52c-65.61,-240.53 -14.58,-298.85 -14.58,-298.85 0,0 -65.6,43.74 -58.31,174.94 7.28,131.21 -29.16,247.83 -58.32,255.12 -29.15,7.29 -153.07,-43.73 -80.18,-284.27 72.9,-240.53 21.87,-204.09 0,-174.94 -21.87,29.15 -102.05,269.7 -109.34,371.74 -0.59,8.27 -1.65,16.59 -3.03,24.85l0 0 32.2 -17.56 0 0c0,0 29.15,102.04 94.75,116.62 65.6,14.58 145.78,-36.45 145.78,-36.45 0,0 5,4.99 13.49,11.87 36,-41.82 52.13,-89.55 37.53,-143.07l0 0 0 0z"/>
     <path class="fil1" d="M1255.79 1695.71c-8.41,25.22 -43.46,111 -71.64,186.12 7.46,21.86 17.48,46.64 29.81,67.26 22.82,-120.24 75.05,-282.18 85.56,-318.98 14.57,-51.02 -29.15,21.87 -43.73,65.6l0 0 0 0z"/>
     <path class="fil5" d="M847.61 325.37c153.06,-65.6 196.8,-153.06 102.04,-153.06 -76.98,0 -254.97,62.53 -358.13,89.91 -34.63,24.82 -76.62,59.44 -115.17,103.43 104.31,1.59 264.39,5.53 371.25,-40.28l0 0 0 0z"/>
     <path class="fil2" d="M1795.18 1739.44c-9.31,-3.99 -17.93,-8.91 -25.91,-14.53 13.54,41.97 -24.68,140.19 -17.82,167.6 4.56,18.2 0.58,67.66 14.69,109.35 2.47,0.32 109.47,13.56 131.09,-72.9 0,0 13.25,-21.22 27.88,-52.87 -35.66,-56.95 -81.98,-116.1 -129.92,-136.65l0 0 0 0z"/>
     <path class="fil1" d="M1769.27 1724.92c-5.64,-3.98 -10.95,-8.29 -15.93,-12.91 -17.4,11.46 -33.88,92.82 -45.63,122.19 -12.38,30.95 -3.73,151.24 -0.84,235.93 21.79,-9.08 42.57,-29.59 59.16,-68.29 0,0 0.08,0.01 0.11,0.01 -14.11,-41.68 -10.14,-91.15 -14.69,-109.35 -6.85,-27.4 31.37,-125.63 17.82,-167.6l0 0 0 0z"/>
     <path class="fil1" d="M986.1 1404.15c-29.15,-36.45 0,-58.32 -14.58,-123.91 -14.57,-65.6 -7.29,-131.2 -7.29,-131.2 0,0 -29.15,65.6 -43.73,109.33 -14.58,43.73 -43.74,43.73 -80.18,51.02 -36.45,7.3 -58.32,-21.86 -65.6,-51.02 -7.29,-29.16 -36.45,-72.88 -36.45,-94.75 0,-21.86 -29.16,36.45 -29.16,72.88 0,36.45 7.29,87.47 -43.73,160.37 -51.03,72.88 -58.32,233.24 -102.05,342.58 -36.61,91.51 23.78,142.15 44.45,156.24 -2.83,-4.37 -4.36,-6.81 -4.36,-6.81 0,0 1.53,2.44 4.36,6.81 4.03,2.74 6.57,4.12 6.57,4.12 0,0 -2.55,-1.38 -6.57,-4.12 8.06,12.46 26.87,40.99 52.25,75.95 3.55,-4.43 5.35,-6.23 5.35,-6.23l0 0 29.82 0 0 0c-20.09,-61.03 -38.25,-155.21 -22.53,-276.98 29.15,-225.96 87.47,-298.85 87.47,-298.85 0,0 -36.45,342.58 -36.45,444.63 0,56.62 51.61,102 97.57,131.2l0 0 95.17 0 0 0c21.64,-62.61 25.94,-182.23 25.94,-182.23 0,0 43.74,-94.75 14.58,-174.94 -29.16,-80.18 -43.74,-211.38 -43.74,-211.38 0,0 51.02,109.34 87.46,174.94 36.45,65.6 36.45,87.46 29.16,153.07 -4.6,41.4 2.42,175.67 32.04,237.97 37.27,-19.59 75.86,-59.48 106.44,-135.93 0,0 2.02,9.08 5.91,22.92 -5.77,-84.17 -66.47,-158.1 -71.5,-183.29 -7.29,-36.45 -87.47,-225.96 -116.63,-262.41l0 0 0 0z"/>
     <path class="fil1" d="M322.8 463.87c29.15,36.45 262.41,160.35 298.85,153.07 36.45,-7.29 221.1,-36.45 286.7,-7.29 65.6,29.16 106.91,0 157.93,-7.29 40.57,-5.8 94.94,-66.86 115.51,-91.64 -21.63,8.02 -43.53,19.65 -57.2,33.33 13.67,-13.67 35.57,-25.3 57.2,-33.33 5.3,-6.39 8.4,-10.4 8.4,-10.4 0,0 -116.63,65.6 -182.23,51.02 -65.6,-14.57 -196.81,-36.45 -284.27,0 -87.47,36.45 -174.94,0 -247.83,-43.74 -22.92,-13.74 -45.82,-31.09 -64.89,-48.87 -8.41,15.59 -16.04,31.87 -22.58,48.87 0,0 -35.36,-30.62 -73.89,-51.69 3.45,2.8 6.29,5.47 8.29,7.96l0 0 0 0z"/>
     <path class="fil2" d="M184.31 1098.01c0,-131.2 94.75,-240.53 131.2,-284.27 36.45,-43.74 102.04,-29.16 138.48,-51.03 36.45,-21.87 102.05,-36.45 102.05,-72.89 0,-36.45 -94.75,-80.18 -116.63,-102.05 -21.86,-21.86 -138.49,-43.74 -225.95,-72.89 -6.25,-2.08 -12.49,-4.57 -18.7,-7.34 -18.59,51.96 -27.01,118.03 -17.74,145.84 14.57,43.73 -14.58,72.89 29.15,102.04l0 0 36.45 21.87 0 0c0,0 7.3,51.02 36.45,72.89 0,0 -131.2,80.18 -145.78,233.24 0,0 -23.02,40.67 -45.7,100.31 18.56,-14.12 34.99,-23.85 45.7,-27.42 43.74,-14.58 51.03,-58.32 51.03,-58.32l0 0 0 0z"/>
     <path class="fil0" d="M723.7 1834.21c0,-102.05 36.45,-444.63 36.45,-444.63 0,0 -58.32,72.89 -87.47,298.85 -15.71,121.77 2.45,215.95 22.53,276.98l0 0 126.06 0 0 0c-45.95,-29.2 -97.57,-74.58 -97.57,-131.2l0 0 0 0z"/>
     <path class="fil5" d="M395.69 1469.75c-58.32,-65.6 7.29,-80.17 -7.29,-138.49 -14.58,-58.32 -7.29,-145.77 -58.32,-182.22 -51.03,-36.45 116.63,-225.96 182.23,-196.81 65.6,29.16 262.41,36.45 225.96,94.76 -36.45,58.32 58.31,87.47 80.17,65.61 21.87,-21.87 7.29,-72.89 43.74,-43.74 36.45,29.15 131.21,14.57 116.63,-29.15 -14.58,-43.74 109.34,-102.05 153.06,-43.74 43.74,58.31 87.47,247.83 36.45,298.84 -51.02,51.02 87.47,58.32 102.05,-14.57 14.57,-72.89 7.28,-160.36 7.28,-160.36 0,0 87.47,131.2 72.89,182.22 -14.57,51.03 87.47,-43.73 43.74,-131.19 -43.74,-87.47 -43.74,-138.49 -43.74,-138.49 0,0 51.03,21.86 72.9,65.6 0,0 7.28,-102.04 -72.9,-131.2 -80.17,-29.16 -58.31,-43.74 -123.91,-72.89 -65.6,-29.16 -7.29,-87.48 -51.03,-72.9 0,0 -196.8,-36.45 -167.64,-65.6 29.15,-29.15 72.89,-65.6 109.34,-94.76 36.45,-29.15 123.91,-131.2 131.2,-153.07 4.56,-13.65 -30.71,-10.25 -66.71,3.12 -20.57,24.78 -74.94,85.85 -115.51,91.64 -51.03,7.29 -94.76,36.45 -160.36,7.29 -65.6,-29.16 -247.83,0 -284.27,7.29 -36.45,7.28 -269.7,-116.63 -298.85,-153.07 -2,-2.49 -4.83,-5.16 -8.29,-7.96 -29.24,-15.99 -60.32,-26.48 -79.18,-13.91 -15.93,10.63 -29.92,35.78 -40.57,65.55 6.21,2.77 12.45,5.26 18.7,7.34 87.46,29.15 204.09,51.03 225.95,72.89 21.87,21.87 116.63,65.61 116.63,102.05 0,36.45 -65.6,51.02 -102.05,72.89 -36.44,21.86 -102.04,7.28 -138.48,51.03 -36.45,43.74 -131.2,153.07 -131.2,284.27 0,0 -7.29,43.74 -51.03,58.32 -10.72,3.57 -27.14,13.3 -45.7,27.42 -29.96,78.74 -59.36,190.61 -34.48,286l0 0 65.61 -14.58 65.61 51.03 123.91 21.86 26.55 106.21 0 0c72.33,-46.42 98.57,-122.17 60.92,-164.53l0 0 0 0z"/>
    </g>
    <path class="fil3" d="M638.05 1307.57c0,0 34.62,5.46 21.87,-34.63 -12.76,-40.09 -27.33,-69.23 -56.49,-85.64 -29.16,-16.4 -103.87,-32.8 -116.63,-32.8 -12.76,0 -38.27,-3.64 -21.87,16.4 16.4,20.04 38.27,29.15 34.62,40.09 -3.64,10.93 -3.64,52.83 36.45,67.41 40.09,14.58 71.07,7.29 76.54,14.58 5.46,7.28 25.51,14.58 25.51,14.58l0 0 0 0z"/>
    <path class="fil3" d="M1011.62 1311.21c0,0 27.33,-27.34 51.02,-21.86 23.69,5.46 80.18,-7.3 91.11,-56.5 10.93,-49.2 27.33,-56.48 36.45,-60.13 9.11,-3.64 43.74,-12.75 43.74,-25.51 0,-12.75 -1.83,-29.15 -16.4,-30.98 -12.13,-1.51 -16.4,-5.47 -23.69,12.75 -7.29,18.22 -20.04,23.69 -61.96,20.05 -41.91,-3.65 -131.2,80.17 -134.84,98.39 -3.64,18.22 -1.82,30.98 1.82,45.56 3.65,14.58 0,23.69 12.76,18.22l0 0 0 0z"/>
    <path class="fil6" d="M283.29 875.17c0,0 70.59,-33.94 64.71,-56.57 -5.88,-22.63 23.53,-5.66 52.94,-28.28 29.41,-22.63 52.95,-50.91 17.64,-50.91 -35.29,0 -58.83,16.97 -76.47,22.62 -17.65,5.66 -41.18,-50.91 -5.89,-56.57 35.3,-5.65 88.25,5.66 64.71,-28.29 -23.53,-33.94 -64.71,-39.6 -94.12,-45.26 -29.42,-5.66 -81.81,-71.17 -35.3,-62.22 29.41,5.65 64.71,5.65 64.71,5.65 0,0 11.77,-56.57 -23.53,-56.57 -35.29,0 -88.24,-22.62 -88.24,-39.6 0,-16.97 -23.52,-33.94 -52.94,-11.32 -14.71,11.32 -33.83,35.36 -44.12,66.48 -10.3,31.11 -11.77,69.3 8.83,108.9 41.18,79.2 105.89,107.49 105.89,135.78 0,28.28 41.18,96.17 41.18,96.17l0 0 0 0z"/>
    <path class="fil6" d="M1168.28 718.87c0,0 10.76,-110.35 43.03,-128.74 32.28,-18.4 59.18,18.39 37.66,30.65 -21.52,12.26 -48.41,67.43 -48.41,85.83 0,18.39 -16.14,30.65 -32.28,12.26l0 0 0 0z"/>
    <path class="fil1" d="M1416.15 689.83l-72.89 21.86 -7.29 94.75 0 0c0,0 160.36,29.16 167.65,211.39 0,0 145.78,109.34 116.63,276.98l0 0 80.18 0 0 0c0,0 51.02,-94.75 -29.16,-174.94 -80.18,-80.17 -131.2,-109.34 -116.63,-138.49 14.58,-29.16 7.29,-225.96 -138.49,-291.56l0 0 0 0z"/>
    <path class="fil3" d="M1766.03 638.81c0,0 7.29,-80.19 -87.47,-80.19 -94.75,0 -87.47,-14.58 -138.49,-43.74 -51.03,-29.15 -123.92,-29.15 -123.92,-29.15l0 0 -51.02 -51.03 0 0c0,0 131.2,-29.15 189.51,21.87 58.32,51.02 29.16,72.89 94.76,58.31 65.6,-14.57 138.49,29.15 116.63,123.92l0 0 0 0z"/>
    <path class="fil6" d="M1297.39 510.43c0,0 59.18,-73.57 75.32,-61.31 16.14,12.26 91.45,24.52 91.45,24.52 0,0 -26.89,24.52 -43.04,36.79 -16.14,12.26 53.8,6.13 53.8,6.13 0,0 -37.65,12.26 -43.03,30.65 -5.38,18.39 43.03,30.65 43.03,30.65 0,0 -26.89,12.26 -37.65,36.78 -10.76,24.53 10.76,30.65 -16.14,61.32 -26.89,30.65 -64.55,42.91 -64.55,42.91 0,0 26.89,49.04 0,91.96 -26.9,42.91 -32.28,73.57 -43.04,49.05 -10.76,-24.53 -43.04,-55.18 -64.56,-61.31 -21.52,-6.13 0,-18.39 26.9,-6.13 26.89,12.26 5.38,-18.4 -16.14,-30.65 -21.52,-12.26 16.14,-18.39 37.65,-18.39 21.52,0 32.28,-55.18 32.28,-55.18l0 0 -59.17 0 0 0c0,0 69.94,-61.3 64.55,-116.48 -1.88,-19.27 -32.28,-12.26 -48.41,0 -16.14,12.26 -26.9,-30.65 -26.9,-30.65l0 0 37.65 -30.65 0 0z"/>
    <g>
     <path class="fil6" d="M1145.84 1238.92c-9.72,38.87 -47.98,51.03 -77.14,46.16 -29.15,-4.86 -43.74,14.58 -53.45,38.87 -9.72,24.3 14.57,68.03 19.43,38.88 4.86,-29.16 19.44,-29.16 48.6,-24.3 29.15,4.86 82.6,-9.72 106.9,-43.74 18.86,-26.39 11.09,-91.47 36.42,-139.89 -15.41,6.25 -33.47,12.56 -41.28,18.42 -19.44,14.57 -29.77,26.72 -39.49,65.59l0 0 0 0z"/>
     <path class="fil6" d="M986.1 862.33c14.57,63.17 -9.72,92.33 -24.3,155.5 -8.81,38.18 34.02,87.47 48.59,106.91 14.58,19.44 4.86,53.45 -14.57,82.61 -19.44,29.15 -4.86,63.17 -4.86,63.17 0,0 21.26,-44.34 48.59,-72.88 25.59,-26.73 102.04,-42.52 131.19,-42.52 24.4,0 41.13,-21.04 55.92,-25.57 -0.24,-17.4 -1.03,-36.68 -2.46,-58.25 -9.73,-145.78 -238.11,-208.95 -238.11,-208.95l0 0 0 0z"/>
    </g>
    <path class="fil6" d="M645.94 1319.11c0,0 9.73,34.02 -24.29,24.29 -34.02,-9.72 -48.6,-19.44 -77.75,-19.44 -29.15,0 -102.04,-14.58 -87.47,-72.89 14.58,-58.3 -24.29,-87.46 19.44,-72.88 43.73,14.58 24.29,58.3 34.02,72.88 9.71,14.57 34.01,38.88 63.17,43.74 29.15,4.86 72.89,4.86 72.89,24.3l0 0 0 0z"/>
    <path class="fil6" d="M655.67 1251.07c0,0 0,34.02 19.43,29.16 19.44,-4.86 19.44,-29.16 4.86,-72.88 -11.19,-33.56 -53.45,-53.11 -53.45,-87.48 0,-24.29 38.88,-48.59 43.74,-72.89 4.86,-24.29 48.59,-63.17 72.89,-68.03 0,0 -48.59,-29.15 -68.03,-29.15 -19.43,0 -38.87,-34.02 -24.29,-58.32 14.58,-24.3 -19.44,-68.03 -53.45,-53.45 -34.02,14.58 -174.94,111.77 -204.1,184.66 -29.15,72.89 9.73,87.46 19.44,102.04 9.72,14.58 58.32,38.87 92.33,24.3 37.69,-16.16 156.68,35.59 150.64,102.04l0 0 0 0z"/>
    <path class="fil3" d="M964.23 1801.4c0,0 30.98,-45.56 12.76,-54.67 -18.22,-9.11 -76.54,49.2 -107.51,41.91 -30.98,-7.29 -80.18,-16.4 -109.34,-23.69 -29.15,-7.29 -71.07,-16.4 -69.25,-3.64 1.82,12.75 -1.82,32.8 -1.82,32.8 0,0 9.11,27.33 -14.58,16.4 -23.69,-10.93 -45.56,-36.45 -47.38,-21.86 -1.82,14.57 -3.64,40.09 20.04,67.42 23.69,27.33 34.62,47.38 29.16,43.74 -5.47,-3.64 -80.18,-69.25 -85.65,-76.54 -5.46,-7.28 -43.74,40.09 16.4,83.83 60.14,43.74 18.22,40.09 18.22,40.09 0,0 51.03,16.4 52.85,40.09 1.82,23.69 87.47,72.89 145.78,67.43 58.31,-5.47 123.91,-38.27 151.25,-56.49 27.33,-18.22 18.22,-29.15 52.84,-32.8 34.62,-3.64 89.29,-80.18 87.46,-100.22 -1.82,-20.04 -3.64,-49.2 -5.46,-63.78 -1.82,-14.58 -32.8,5.47 -38.27,27.33 -5.46,21.86 -23.69,34.62 -41.91,43.74 -18.22,9.11 20.04,-23.69 20.04,-30.98 0,-7.28 3.64,-51.02 -3.64,-61.95 -7.29,-10.94 -21.87,23.69 -29.16,40.09 -7.29,16.4 -29.15,30.98 -47.38,30.98 -18.22,0 3.64,-16.39 5.47,-23.69 1.82,-7.29 -10.94,-25.51 -10.94,-25.51l0 0 0 0z"/>
    <path class="fil6" d="M976.39 1790.47c0,0 -29.15,38.87 -72.89,43.74 -43.74,4.86 -58.31,43.74 -58.31,43.74 0,0 -9.12,29.15 5.46,58.31 14.58,29.15 86.86,43.74 150.03,24.29 63.18,-19.43 126.34,-19.43 136.06,-106.91l0 0 -24.3 -14.57 0 0c0,0 -9.71,68.03 -116.62,68.03 0,0 58.32,-34.02 58.32,-77.75 0,0 -58.32,63.17 -111.77,68.03 0,0 58.31,-63.17 63.17,-92.33 4.86,-29.15 14.58,-58.31 -29.15,-14.57l0 0 0 0z"/>
    <path class="fil6" d="M698.79 1790.47c0,0 29.15,38.87 72.9,43.74 43.73,4.86 58.3,43.74 58.3,43.74 0,0 14.58,29.15 0,58.31 -14.57,29.15 -92.32,43.74 -155.5,24.29 -63.17,-19.43 -126.34,-19.43 -136.06,-106.91l0 0 24.3 -14.57 0 0c0,0 9.72,68.03 116.63,68.03 0,0 -58.31,-34.02 -58.31,-77.75 0,0 58.31,63.17 111.76,68.03 0,0 -58.32,-63.17 -63.17,-92.33 -4.86,-29.15 -14.58,-58.31 29.15,-14.57l0 0 0 0z"/>
    <path class="fil6" d="M995.82 1955.69c0,0 -4.31,116.38 -58.32,140.92l0 0 -19.44 -24.3 -38.87 34.01 -19.44 -19.43 -14.57 24.29 -24.31 -29.15 -24.29 24.29 -38.87 -34.01 -29.15 19.44 0 0c0,0 -72.89,-63.17 -58.32,-131.21 0,0 63.17,29.16 106.91,29.16 43.73,0 58.32,-24.3 58.32,-24.3 0,0 86.71,67.83 160.35,-9.72l0 0 0 0z"/>
    <path class="fil6" d="M1175.61 1746.74c0,0 -28.55,129.99 38.87,213.81 38.76,48.19 72.89,38.88 102.04,0 0,0 29.15,82.62 58.32,97.2 29.15,14.57 102.04,38.87 121.48,14.57 19.44,-24.29 53.45,-19.44 72.89,-9.72 19.44,9.72 116.63,63.17 165.22,-9.72 48.59,-72.89 48.59,-38.87 63.17,-38.87 14.58,0 106.91,-29.15 87.47,-58.32 -19.44,-29.16 -38.87,-19.44 -53.45,0 -14.58,19.44 -43.74,43.74 -63.17,24.3 -19.44,-19.44 -38.87,-48.6 -43.74,-29.15 -4.86,19.44 -9.72,92.33 -53.45,87.46 -43.74,-4.86 -19.44,-29.15 -9.72,-48.59 9.72,-19.44 9.72,-58.32 -24.3,-72.9 -34.01,-14.57 -82.61,14.58 -63.17,53.46 19.44,38.87 -19.44,48.59 -19.44,48.59 0,0 -34.02,-19.44 -48.59,-53.45 -14.58,-34.02 -43.74,-72.89 -53.45,-34.02 -9.72,38.88 -34.02,60.74 -34.02,41.31 0,-19.44 0,-36.45 -29.15,-51.03 -29.15,-14.57 -35.23,-26.11 -53.45,-19.44 -34.75,12.74 3.65,-44.34 -1.21,-68.63 -4.86,-24.3 -13.36,63.78 -37.66,73.5 -24.3,9.71 -53.45,-4.86 -63.17,-29.15 -9.72,-24.31 -38.88,-72.9 -29.16,-102.05 9.73,-29.15 -29.15,-29.15 -29.15,-29.15l0 0 0 0z"/>
    <path class="fil6" d="M1928.81 1843.92c0,0 -19.44,-136.07 -63.17,-155.5 -43.74,-19.44 -87.47,-34.02 -68.03,-72.89 19.44,-38.88 82.62,9.71 102.04,-4.86 19.44,-14.58 19.44,-63.17 43.74,-87.47 24.3,-24.29 68.03,-14.57 68.03,-14.57 0,0 -52.24,52.84 -57.1,101.44 -4.86,48.59 0.61,100.22 0.61,134.24 0,34.01 3.03,80.18 -26.12,99.62l0 0 0 0z"/>
    <path class="fil6" d="M111.41 1236.5c0,0 -77.75,189.52 0,325.58l0 0 24.3 -14.58 0 0c0,0 29.15,58.32 29.15,77.75l0 0 19.44 -29.15 29.15 38.87 9.71 24.29 19.44 -38.87 68.03 -14.57 0 0c0,0 9.72,4.86 -4.86,43.73 -14.58,38.88 4.86,53.45 4.86,53.45 0,0 126.34,82.62 194.38,87.47 0,0 -82.62,-72.89 -97.19,-72.89 -14.58,0 -34.02,-14.58 -38.87,-29.15 -4.86,-14.58 -24.3,-24.3 -14.58,-43.74 9.72,-19.44 58.31,4.86 58.31,4.86 0,0 77.75,9.72 111.77,14.58 34.02,4.86 38.87,-29.15 38.87,-29.15l0 0 19.44 -82.62 0 0c0,0 -58.32,0 -77.75,4.86 -19.44,4.86 -53.45,14.58 -53.45,14.58l0 0 38.87 -53.45 0 0c0,0 -58.31,-4.86 -82.61,-4.86 -24.3,0 -4.86,-43.74 -4.86,-43.74 0,0 -19.44,-19.43 -34.02,-43.73 -14.58,-24.3 -38.88,-102.05 -38.88,-140.92 0,-38.87 -38.87,-9.72 -38.87,9.72 0,19.44 -24.3,68.03 -4.86,106.91 19.44,38.87 38.87,116.63 38.87,116.63l0 0 48.59 34.01 0 0c0,0 -9.72,29.16 -24.3,38.88 -14.57,9.72 -19.44,-9.72 -43.73,-9.72 -24.3,0 0,-38.88 -24.3,-77.75 -24.3,-38.87 -48.6,-106.9 -48.6,-131.2 0,-24.3 -24.29,-29.15 -34.01,-9.72 -9.72,19.44 -14.57,48.59 -9.72,68.03 4.86,19.44 48.59,53.45 43.73,72.89 -4.86,19.44 4.86,63.18 -14.57,53.45 -19.44,-9.72 -58.32,-48.59 -68.03,-68.03 -9.72,-19.44 -43.74,-63.17 -38.88,-106.91 4.86,-43.74 0,-145.78 0,-145.78l0 0 0 0z"/>
    <path class="fil6" d="M1423.44 1289.96c0,0 14.58,-4.86 19.44,-58.32 4.86,-53.45 34.02,4.86 29.16,38.87 -4.86,34.02 24.29,34.02 24.29,34.02 0,0 -29.15,29.15 -48.6,43.74 -19.44,14.58 -72.88,34.01 -72.88,34.01 0,0 38.87,-48.59 48.59,-92.32l0 0 0 0z"/>
    <path class="fil6" d="M1578.94 663.1c0,0 131.2,-48.6 126.34,34.01 -4.86,82.62 14.58,150.64 29.15,179.8 14.58,29.15 19.44,276.99 19.44,311 0,34.02 -29.15,-228.39 -58.31,-257.54 -29.15,-29.16 -82.61,-145.79 -72.89,-170.08 9.72,-24.3 -14.58,-72.9 -43.74,-97.19l0 0 0 0z"/>
    <path class="fil6" d="M679.96 512.46c0,0 -87.47,34.02 -121.48,9.72 -34.02,-24.29 -72.9,-68.03 -24.3,-92.33 48.6,-24.3 272.12,-38.87 296.42,-34.02 24.29,4.86 -150.64,34.02 -179.8,38.87 -29.15,4.86 -92.33,34.02 -34.02,43.74 58.31,9.73 63.17,34.02 63.17,34.02l0 0 0 0z"/>
    <g>
     <path class="fil7" d="M738.28 1757.67c-12.86,-4.28 -27.72,-8.91 -41.01,-8.5 2.72,6.4 10.36,14.46 20.96,15.79 14.58,1.82 16.4,7.29 41.91,12.75 1.46,0.31 2.72,0.63 4.1,0.94 -5.98,-6.92 -10.27,-15.75 -25.97,-20.99l0 0 0 0z"/>
     <path class="fil7" d="M924.15 1763.14c-34.62,5.46 -63.78,25.51 -67.42,41.91 -3.65,16.4 -9.11,27.33 -14.58,30.98 -0.17,0.11 -0.31,0.12 -0.47,0.21 1.42,-0.1 2.29,-0.21 2.29,-0.21 0,0 20.04,1.82 23.69,-3.65 3.64,-5.46 10.93,-12.75 18.22,-21.86 7.28,-9.11 10.93,-29.15 27.33,-32.8 11.16,-2.48 28.24,-3.29 43.18,-9.29 -4.44,-4.28 -13.52,-8.25 -32.25,-5.29l0 0 0 0z"/>
     <path class="fil7" d="M825.74 1823.27c-9.11,-9.11 3.64,-10.93 -5.46,-34.62 -9.12,-23.69 -36.45,-45.56 -38.27,-38.27 -1.67,6.7 25.75,34.85 9.04,37.99 4.81,3.38 7.36,7.5 7.36,13.04 0,12.75 9.11,29.15 20.04,32.8 6.44,2.14 14.07,2.39 19.32,2.23 -2.93,-1.57 -5.75,-6.89 -12.03,-13.16l0 0 0 0z"/>
     <path class="fil8" d="M920.5 1726.69c-34.62,9.11 -65.61,34.62 -78.36,30.98 -12.76,-3.64 -83.82,-47.38 -112.98,-34.62 -29.15,12.76 -30.98,14.58 -32.8,20.05 -0.5,1.49 -0.12,3.67 0.9,6.08 13.29,-0.41 28.15,4.21 41.01,8.5 15.7,5.23 19.99,14.06 25.97,20.99 12.24,2.8 21.17,5.74 26.8,9.71 16.71,-3.13 -10.72,-31.29 -9.04,-37.99 1.83,-7.28 29.15,14.58 38.27,38.27 9.1,23.69 -3.65,25.51 5.46,34.62 6.28,6.27 9.1,11.59 12.03,13.16 1.53,-0.05 2.89,-0.11 3.91,-0.2 0.16,-0.09 0.3,-0.1 0.47,-0.21 5.47,-3.65 10.93,-14.58 14.58,-30.98 3.64,-16.39 32.8,-36.45 67.42,-41.91 18.72,-2.96 27.81,1.01 32.25,5.29 7,-2.82 13.54,-6.77 18.78,-12.58 16.39,-18.22 -20.05,-38.27 -54.67,-29.15l0 0 0 0z"/>
    </g>
    <path class="fil9" d="M885.88 1746.74c0,0 27.33,-20.04 52.85,-10.93 0,0 -23.69,9.11 -32.8,12.75 -9.11,3.65 -20.04,-1.82 -20.04,-1.82l0 0 0 0z"/>
    <path class="fil9" d="M780.19 1741.27c0,0 -32.8,-20.04 -47.38,-5.46 0,0 14.57,7.29 23.69,9.11 9.11,1.82 23.69,-3.65 23.69,-3.65l0 0 0 0z"/>
    <path class="fil10" d="M1079.04 1275.98c25.62,0 46.38,-21.35 46.38,-47.68 0,-26.32 -20.76,-47.67 -46.38,-47.67 -25.62,0 -46.39,21.35 -46.39,47.67 0,26.33 20.77,47.68 46.39,47.68l0 0 0 0z"/>
    <path class="fil11" d="M1100.9 1214.63c0,0 -5.46,36.44 -47.38,32.8 0,0 63.78,30.98 47.38,-32.8l0 0 0 0z"/>
    <path class="fil10" d="M581.56 1268.69c25.62,0 46.39,-21.34 46.39,-47.67 0,-26.33 -20.76,-47.68 -46.39,-47.68 -25.62,0 -46.39,21.35 -46.39,47.68 0,26.33 20.77,47.67 46.39,47.67l0 0 0 0z"/>
    <path class="fil11" d="M603.43 1207.35c0,0 -5.47,36.44 -47.38,32.79 0,0 63.78,30.98 47.38,-32.79l0 0 0 0z"/>
    <path class="fil3" d="M484.52 571.16c0,0 -158.78,-140.95 -211.71,-152.69 -8.64,-1.91 -17.59,-1.75 -26.54,-0.13 -45.91,8.32 -91.53,54.94 -91.53,54.94 0,0 88.94,-46.09 142.5,-11.75 48.85,31.32 187.28,109.63 187.28,109.63l0 0 0 0z"/>
    <path class="fil3" d="M117.7 682.33c-10.35,-21.17 -7.23,-63.86 -0.5,-92.91 0,0 21.56,104.91 70.99,143.59 0,0 -49.54,-7.79 -70.49,-50.68l0 0 0 0z"/>
    <path class="fil3" d="M260.91 873.85c0,0 -105.36,105.25 -124.1,187.84 0,0 -7.99,-127.82 124.1,-187.84l0 0 0 0z"/>
    <path class="fil3" d="M27.79 1364.11c1.61,-64.07 22.47,-140.42 85.11,-220.71 0,0 -97.54,195.06 -37,400.21 0,0 -50.79,-72.7 -48.11,-179.5l0 0 0 0z"/>
    <path class="fil3" d="M321.41 1626.57c0,0 -16.81,50.45 -36.99,53.81 0,0 40.35,73.99 144.62,90.81 0,0 -97.54,-50.45 -117.71,-80.72 0,0 26.9,-26.91 10.09,-63.9l0 0 0 0z"/>
    <path class="fil3" d="M535.53 1796.97c0,0 16.81,164.79 178.24,171.52 0,0 -195.06,23.54 -178.24,-171.52l0 0 0 0z"/>
    <path class="fil3" d="M952.55 1971.85c0,0 141.25,-3.36 178.24,-100.89 0,0 -3.37,127.8 -178.24,100.89l0 0 0 0z"/>
    <path class="fil3" d="M680.14 2025.66c0,0 21.86,50.45 38.68,73.99 0,0 -48.77,-23.54 -38.68,-73.99l0 0 0 0z"/>
    <path class="fil3" d="M996.28 2015.57c0,0 -23.55,48.77 -46.24,77.36 0,0 56.33,-26.91 46.24,-77.36l0 0 0 0z"/>
    <path class="fil3" d="M900.7 2078.91c0,0 -8.96,17.93 -31.39,31.39 0,0 40.36,8.96 31.39,-31.39l0 0 0 0z"/>
    <path class="fil3" d="M763.38 2080.59c0,0 8.96,17.94 31.39,31.39 0,0 -40.35,8.96 -31.39,-31.39l0 0 0 0z"/>
    <path class="fil3" d="M819.71 2093.77c0.22,-2.51 14.29,19.34 26.06,26.9 0,0 -28.58,1.68 -26.06,-26.9l0 0 0 0z"/>
    <path class="fil3" d="M1113.7 571.69c0,0 145.2,-152.75 193.61,-165.48 48.4,-12.73 107.97,59.4 107.97,59.4 0,0 -81.33,-49.94 -130.31,-12.73 -44.67,33.95 -171.27,118.81 -171.27,118.81l0 0 0 0z"/>
    <path class="fil3" d="M1468.64 590.07c0,0 -40.95,106.08 -93.08,135.78 0,0 93.08,-38.18 93.08,-135.78l0 0 0 0z"/>
    <path class="fil3" d="M1380.97 819.73c0,0 105.37,105.25 124.09,187.84 0,0 8,-127.82 -124.09,-187.84l0 0 0 0z"/>
    <path class="fil3" d="M1642 1284.47c-5.05,-60.14 -24.71,-126.77 -72.65,-190.69 0,0 39.71,79.42 52.73,190.2l0 0 19.92 0.5 0 0z"/>
    <path class="fil3" d="M1172.27 1842.93c0,0 17.94,-273.53 130.03,-385.64 0,0 -143.49,31.39 -130.03,385.64l0 0 0 0z"/>
    <path class="fil3" d="M1580.33 1309.31c0,0 224.21,-40.35 318.38,35.88 94.16,76.22 130.04,80.72 130.04,80.72 0,0 -85.2,-13.46 -139.01,-58.3 -53.82,-44.84 -125.56,-53.81 -309.41,-58.3l0 0 0 0z"/>
    <path class="fil3" d="M1468.22 1313.8c0,0 -67.26,71.75 -112.1,85.2 0,0 107.62,-22.42 112.1,-85.2l0 0 0 0z"/>
    <path class="fil3" d="M728.35 1085.11c0,0 -17.94,125.56 -13.46,170.39 4.49,44.84 4.49,13.45 4.49,13.45 0,0 -44.84,-80.71 8.97,-183.84l0 0 0 0z"/>
    <path class="fil3" d="M710.41 1327.25c0,0 -139.01,138.62 -130.04,286.98 0.82,13.43 4.49,13.45 4.49,13.45 0,0 49.32,-174.89 125.56,-300.43l0 0 0 0z"/>
    <path class="fil3" d="M941.34 1096.32c0,0 26.91,116.59 8.97,170.39 0,0 40.36,-107.61 -8.97,-170.39l0 0 0 0z"/>
    <path class="fil3" d="M943.59 1345.19c0,0 121.07,165.91 143.49,273.53 0,0 -40.36,-219.72 -143.49,-273.53l0 0 0 0z"/>
    <path class="fil3" d="M746.28 1434.87c-35.87,98.65 -40.35,237.66 -40.35,237.66 35.87,-152.46 40.35,-251.12 40.35,-251.12l0 0 0 13.46 0 0z"/>
    <path class="fil3" d="M912.2 1414.7c0,0 4.49,98.65 40.36,251.11 0,0 -4.49,-139.01 -40.36,-237.67l0 -13.44z"/>
    <path class="fil3" d="M828.59 1864.84c0,0 -27.12,-38.19 -83.89,-50.93 -24.43,-5.49 -48.98,-49.09 -48.98,-49.09 0,0 -4.63,51.38 37,60 52.69,10.91 95.86,40.02 95.86,40.02l0 0 0 0z"/>
    <path class="fil3" d="M854.56 1861.21c0,0 8.89,-30.91 83.88,-50.94 24.2,-6.46 47.16,-47.27 47.16,-47.27 0,0 5.92,47.29 -35.18,58.18 -61.81,16.37 -95.86,40.02 -95.86,40.02l0 0 0 0z"/>
    <path class="fil3" d="M846.06 1752.97c0,0 47.64,-13.17 65.58,-22.14 17.94,-8.97 55.49,-9.25 55.49,-9.25 0,0 -35.87,-17.38 -58.3,-8.41 -22.42,8.96 -62.77,39.79 -62.77,39.79l0 0 0 0z"/>
    <path class="fil3" d="M830.5 1751.29c0,0 -47.64,-13.18 -65.58,-22.15 -17.94,-8.96 -55.49,-9.24 -55.49,-9.24 0,0 35.87,-17.38 58.29,-8.41 22.42,8.96 62.78,39.8 62.78,39.8l0 0 0 0z"/>
    <path class="fil3" d="M962.08 1774.83c0,0 -36.15,-5.89 -54.65,5.04 -18.5,10.93 -10.93,26.06 -13.46,35.31 -2.53,9.25 -5.04,11.78 -5.04,11.78 0,0 16.81,-0.84 13.45,-13.46 -3.36,-12.61 10.09,-36.99 59.7,-38.67l0 0 0 0z"/>
    <path class="fil3" d="M735.07 1781.97c0,0 36.15,-5.89 54.65,5.04 18.49,10.93 10.93,26.06 13.45,35.31 2.53,9.26 5.04,11.78 5.04,11.78 0,0 -16.81,-0.84 -13.45,-13.45 3.36,-12.61 -10.09,-37 -59.7,-38.68l0 0 0 0z"/>
    <path class="fil3" d="M237.52 770.84c0,0 10.86,62.65 43.43,88.75 0,0 -70.57,-41.76 -43.43,-88.75l0 0 0 0z"/>
    <path class="fil3" d="M1365.18 771.81c0,0 -9.93,67.89 -39.72,96.18 0,0 64.54,-45.26 39.72,-96.18l0 0 0 0z"/>
    <path class="fil3" d="M667.71 1270.07c0,0 -28.72,-157.98 -197.48,-114.89 0,0 147.2,14.36 197.48,114.89l0 0 0 0z"/>
    <path class="fil3" d="M646.17 1331.11c0,0 -25.14,-32.32 -39.5,-32.32 -14.36,0 -111.3,25.14 -104.12,-86.17 0,0 32.31,75.39 93.35,68.22 61.04,-7.18 50.27,50.27 50.27,50.27l0 0 0 0z"/>
    <path class="fil3" d="M990.77 1268.27c0,0 28.72,-157.97 197.47,-114.89 0,0 -147.2,14.36 -197.47,114.89l0 0 0 0z"/>
    <path class="fil3" d="M1012.31 1329.32c0,0 25.13,-32.32 39.49,-32.32 14.36,0 111.3,25.14 104.12,-86.17 0,0 -32.32,75.39 -93.35,68.21 -61.04,-7.18 -50.27,50.27 -50.27,50.27l0 0 0 0z"/>
    <path class="fil3" d="M338.22 1322.77c0,0 8.97,134.53 121.08,165.91 0,0 -98.65,-89.68 -121.08,-165.91l0 0 0 0z"/>
    <path class="fil3" d="M966 627.73c0,0 -197.5,-29.34 -332.02,-2.43 0,0 192.83,-82.78 332.02,2.43l0 0 0 0z"/>
    <path class="fil3" d="M362.38 598.57c0,0 97.71,104.41 70.57,161.83 0,0 70.57,-88.75 -70.57,-161.83l0 0 0 0z"/>
    <path class="fil3" d="M1247.73 559.67c0,0 -89.35,113.14 -64.53,175.37 0,0 -64.54,-96.17 64.53,-175.37l0 0 0 0z"/>
    <path class="fil3" d="M2107.16 1148.96c0,0 -87.66,-310.76 -105.24,-390.05 0,0 21.4,281.83 105.24,390.05l0 0 0 0z"/>
    <path class="fil3" d="M1795.56 260.03c0,0 -72.08,-65.41 -190.04,-103.01 -98.22,-31.3 -228.26,-43.32 -374.96,17.8 0,0 300.43,-85.2 565,85.2l0 0 0 0z"/>
    <path class="fil3" d="M974.97 170.34c0,0 -228.69,35.87 -304.92,67.26 -93.55,38.52 -258.78,218.51 -258.78,218.51 0,0 100.34,-183.94 245.33,-236.45 124.01,-44.91 318.37,-49.32 318.37,-49.32l0 0 0 0z"/>
    <path class="fil3" d="M1205.6 0.01c-30.26,-0.21 -63.9,3.43 -99.77,13.52 0,0 174.89,-8.96 251.11,22.43 0,0 -60.53,-35.31 -151.34,-35.95l0 0 0 0z"/>
    <path class="fil3" d="M584.57 1238.41c9.19,0 16.65,-7.72 16.65,-17.23 0,-9.53 -7.45,-17.25 -16.65,-17.25 -9.19,0 -16.65,7.72 -16.65,17.25 0,9.51 7.45,17.23 16.65,17.23l0 0 0 0z"/>
    <path class="fil3" d="M1075.96 1244.3c-9.19,0 -16.65,-7.72 -16.65,-17.25 0,-9.52 7.45,-17.23 16.65,-17.23 9.19,0 16.65,7.72 16.65,17.23 0,9.52 -7.45,17.25 -16.65,17.25l0 0 0 0z"/>
    <path class="fil3" d="M1199.17 1933.73c0,0 43.72,67.27 67.26,57.17 23.55,-10.09 60.54,-43.72 60.54,-43.72 0,0 -43.72,73.99 -70.63,67.27 -26.9,-6.73 -57.17,-80.72 -57.17,-80.72l0 0 0 0z"/>
    <path class="fil3" d="M1333.7 2014.45c0,0 67.26,50.45 97.52,60.53 30.27,10.09 90.81,-3.36 90.81,-3.36 0,0 -70.63,37 -97.54,23.55 -26.9,-13.46 -90.8,-80.72 -90.8,-80.72l0 0 0 0z"/>
    <path class="fil3" d="M1596.02 2081.71c0,0 121.07,20.18 168.15,-47.08 0,0 -20.18,100.9 -168.15,47.08l0 0 0 0z"/>
    <path class="fil3" d="M1804.54 2017.81c0,0 84.07,-13.45 84.07,-84.08 0,0 80.72,-114.34 53.82,-198.42 0,0 47.08,104.26 -33.63,198.42 0,0 -13.45,110.99 -104.26,84.08l0 0 0 0z"/>
    <path class="fil3" d="M2073.59 1466.26c0,0 -84.08,60.53 -100.9,73.99 -16.81,13.46 -16.81,70.63 -16.81,70.63 0,0 20.18,-60.53 33.63,-63.9 13.44,-3.37 77.36,-60.54 84.08,-80.72l0 0 0 0z"/>
    <path class="fil3" d="M1240.66 1852.32c0,0 -8.56,60.03 -3.31,77.36 0,0 29.25,-64.99 20.64,-82.61 -8.6,-17.62 -17.34,5.25 -17.34,5.25l0 0 0 0z"/>
    <path class="fil3" d="M1450.14 1912.64l-28.58 92.24 0 0c0,0 -4.75,-58.95 11.11,-109.06 0,0 26.48,4.78 17.47,16.82l0 0 0 0z"/>
    <path class="fil3" d="M1641.43 1938.78c0,0 -15.14,79.04 -15.14,92.49 0,0 -13.45,-80.71 -3.36,-104.25 0,0 15.13,-5.05 18.49,11.76l0 0 0 0z"/>
    <path class="fil3" d="M1794.45 1910.19c0,0 0,38.68 -10.09,63.9 0,0 26.9,-43.72 26.9,-67.27 0,-23.54 -16.81,3.36 -16.81,3.36l0 0 0 0z"/>
    <path class="fil6" d="M571.54 1212.18c4.97,0 9.01,-4.61 9.01,-10.31 0,-5.69 -4.04,-10.3 -9.01,-10.3 -4.99,0 -9.02,4.62 -9.02,10.3 0,5.7 4.03,10.31 9.02,10.31l0 0 0 0z"/>
    <path class="fil6" d="M1087.23 1217.65c4.99,0 9.03,-4.6 9.03,-10.3 0,-5.7 -4.04,-10.31 -9.03,-10.31 -4.97,0 -9.01,4.61 -9.01,10.31 0,5.69 4.04,10.3 9.01,10.3l0 0 0 0z"/>
    <path class="fil3" d="M402.98 1863.36c0,0 94.75,14.58 138.49,7.29l0 0 29.15 43.74 0 0c0,0 -116.63,-14.58 -167.64,-51.03l0 0 0 0z"/>
    <path class="fil3" d="M541.47 1644.69c0,0 -7.29,80.18 -51.03,72.89 -43.74,-7.29 -80.18,-43.74 -80.18,-43.74l0 0 -43.74 -51.03 -43.73 14.58 -36.45 43.74 -21.87 -51.03 -58.32 -21.86 94.76 -14.58 0 -36.45 0 0c0,0 -87.46,-189.52 -65.6,-276.98 21.86,-87.46 29.15,-182.23 58.32,-160.36 29.15,21.87 14.57,58.32 -7.29,109.33 -21.87,51.03 -14.59,109.34 7.29,182.23 21.86,72.89 80.17,153.07 80.17,153.07l0 0 -29.15 21.86 0 0c0,0 58.32,0 58.32,29.16 0,29.15 58.31,43.73 80.17,29.15 21.87,-14.58 58.32,0 58.32,0l0 0 0 0z"/>
    <path class="fil3" d="M206.17 1433.31c0,0 80.19,109.33 7.3,102.04 -72.89,-7.29 -131.21,-123.92 -109.34,-211.39 21.86,-87.47 65.59,-131.19 58.31,-160.35 -7.29,-29.15 -7.29,-80.18 29.15,-116.63 36.45,-36.45 72.89,-87.46 87.46,-58.32 14.59,29.16 -21.86,43.74 -51.02,65.61 -29.15,21.87 -36.45,58.32 -36.45,80.18 0,21.87 21.87,36.45 -7.28,72.89 -29.16,36.45 -43.74,109.34 -36.45,160.35 7.29,51.02 58.31,65.61 58.31,65.61l0 0 0 0z"/>
    <path class="fil3" d="M322.8 915.78c0,0 0,36.45 29.15,14.59 29.15,-21.87 58.31,-58.32 87.46,-58.32 29.16,0 87.47,-21.86 72.9,-51.03 -14.58,-29.15 -51.03,-29.15 -72.9,-14.58 -21.86,14.58 -29.15,36.45 -65.6,51.03 -36.45,14.57 -58.31,29.15 -51.02,58.3l0 0 0 0z"/>
    <path class="fil3" d="M388.4 806.45c0,0 -43.74,-21.86 -65.6,0 -21.87,21.87 65.6,0 65.6,0l0 0 0 0z"/>
    <path class="fil3" d="M410.27 718.98c0,0 -72.89,72.89 -102.04,43.74 -29.16,-29.16 7.29,-65.61 36.45,-65.61 29.15,0 65.6,21.87 65.6,21.87l0 0 0 0z"/>
    <path class="fil3" d="M806.31 1098.01l-34.01 31.58 -48.6 34.02 0 0c0,0 14.58,-72.89 36.45,-87.46 21.86,-14.59 65.6,-7.29 65.6,-29.16 0,-21.87 14.58,-72.89 21.87,-43.74 7.28,29.16 36.44,51.03 36.44,51.03 0,0 94.76,21.87 58.32,29.15 -36.45,7.29 -65.6,-7.28 -65.6,-7.28 0,0 -29.15,-29.16 -36.45,-7.29 -7.29,21.86 51.02,72.89 51.02,72.89l0 0 -36.45 -7.29 -48.59 -36.45 0 0z"/>
    <path class="fil3" d="M993.39 1076.15c0,0 -21.87,-7.29 0,-29.16 21.86,-21.87 58.31,29.16 51.02,65.61l0 0 -51.02 -36.45 0 0z"/>
    <path class="fil3" d="M956.95 923.08c0,0 -36.45,17 0,43.74 21.19,15.54 36.45,0 58.31,7.28 21.86,7.29 94.75,80.18 80.18,123.92 0,0 21.86,-87.47 -36.45,-138.49 -58.32,-51.03 -102.04,-36.45 -102.04,-36.45l0 0 0 0z"/>
    <path class="fil3" d="M1146.45 1149.03c0,0 58.31,7.29 58.31,-21.87 0,-29.15 0,-65.6 -14.57,-87.46 -14.57,-21.87 -29.15,-123.92 -7.28,-138.5 21.86,-14.57 43.73,36.45 58.3,72.89 14.59,36.45 58.32,72.89 14.59,102.05 -43.74,29.15 14.57,72.89 -43.74,72.89l0 0 -65.61 0 0 0z"/>
    <path class="fil3" d="M1394.28 1353.13c0,0 21.86,-43.74 -14.58,-109.34 -36.45,-65.6 -43.74,-65.6 -51.02,-29.15 -7.29,36.44 21.86,80.17 21.86,80.17l0 0 43.74 58.32 0 0z"/>
    <path class="fil3" d="M1452.59 1294.81c0,0 80.18,-80.17 29.16,-145.77 -51.03,-65.61 -58.32,-145.79 -87.47,-131.21 -29.15,14.58 -7.3,65.6 36.45,116.63 43.74,51.03 21.86,160.35 21.86,160.35l0 0 0 0z"/>
    <path class="fil3" d="M672.67 1003.25c0,0 -80.18,51.03 -80.18,94.76 0,0 43.74,-36.45 72.9,-43.74 29.15,-7.29 43.73,-43.74 7.28,-51.03l0 0 0 0z"/>
    <path class="fil3" d="M716.41 966.81c0,0 14.58,-21.87 -14.58,-36.45 -29.15,-14.59 -51.02,14.57 -80.17,14.57 -29.16,0 -65.61,65.6 -94.76,65.6 -29.15,0 -65.6,87.47 -65.6,87.47 0,0 38.87,-63.17 60.74,-55.88 21.87,7.29 48.6,-2.43 70.46,-31.59 21.87,-29.15 123.92,-43.73 123.92,-43.73l0 0 0 0z"/>
    <path class="fil3" d="M468.58 1098.01l-43.74 -21.86 0 0c0,0 -36.45,-80.18 -36.45,-58.32 0,21.87 -36.45,51.03 -14.58,87.47 21.87,36.45 58.32,58.31 65.6,29.15 7.29,-29.15 29.16,-36.45 29.16,-36.45l0 0 0 0z"/>
    <path class="fil3" d="M835.47 910.93c-7.3,-12.15 -14.59,-41.31 -14.59,-41.31 0,0 -21.86,24.31 -51.02,21.87 -21.79,-1.81 -38.87,2.43 -68.03,-19.44 -29.15,-21.86 -51.02,-21.86 -72.89,-7.29 -21.86,14.57 -87.46,80.18 -94.75,36.45 -7.29,-43.73 36.45,-80.18 72.89,-87.46 36.45,-7.3 94.75,7.28 123.92,29.15 29.15,21.87 89.89,-17 89.89,-17l0 0 -7.29 -19.44 0 0c0,0 12.15,-60.74 -60.74,-51.02 -36.84,4.91 -65.6,-7.29 -87.46,-14.58 -21.87,-7.29 -65.61,7.29 -65.61,7.29 0,0 43.74,-58.31 80.18,-43.74 36.45,14.58 104.47,41.31 119.06,19.44 14.57,-21.87 2.43,-94.76 -26.73,-77.75 -33.91,19.78 -48.6,-7.28 -85.04,-7.28 -36.45,0 -87.47,-7.3 -87.47,-7.3 0,0 36.45,-36.45 109.34,-21.86 72.89,14.57 153.07,-21.87 204.1,0 51.02,21.86 94.75,-29.16 174.94,36.45 0,0 -94.75,-21.87 -145.78,0 -51.03,21.86 -102.04,0 -102.04,0 0,0 -36.45,-14.58 -21.87,51.02 5.71,25.66 14.58,51.03 51.03,36.45 36.45,-14.57 58.31,-21.86 102.04,0 43.74,21.87 109.34,7.29 109.34,29.16 0,21.86 -7.29,36.45 -51.02,21.86 -43.74,-14.58 -65.63,-20.63 -94.76,-21.86 -114.2,-4.86 -102.04,14.58 -102.04,14.58l0 0 7.29 58.31 58.31 -7.29 0 0c0,0 29.15,-29.15 102.04,7.29 72.89,36.45 87.47,36.45 65.61,43.73 -21.87,7.3 -69.4,7.2 -102.05,-14.57 -21.86,-14.57 -41.3,-7.28 -72.89,7.29 -31.58,14.58 -41.3,-4.86 -41.3,-4.86 0,0 -7.29,55.89 -14.57,43.74l0 0 0 0z"/>
    <path class="fil3" d="M1277.65 1331.26c0,0 43.74,29.15 -14.57,58.32 -58.32,29.15 -36.45,80.17 -36.45,80.17 0,0 43.74,-58.31 65.61,-65.6 21.86,-7.28 65.6,-58.32 -14.59,-72.89l0 0 0 0z"/>
    <path class="fil3" d="M1875.36 1338.55c0,0 51.03,36.45 102.04,-29.16 51.03,-65.59 14.58,-58.31 21.86,-138.48 7.29,-80.18 14.58,-189.52 14.58,-189.52 0,0 -51.02,138.49 -51.02,160.36 0,21.86 21.86,102.04 -7.29,123.9 -29.15,21.87 -116.63,43.74 -116.63,43.74l0 0 36.45 29.16 0 0z"/>
    <path class="fil3" d="M1758.73 1302.1c0,0 109.34,-36.45 116.63,-87.46 7.29,-51.03 43.74,-211.39 51.03,-255.12 7.28,-43.74 -29.16,-80.19 -7.29,-174.94 21.86,-94.75 43.74,-145.77 43.74,-145.77 0,0 -87.47,123.91 -80.18,182.22 7.28,58.31 29.15,138.5 0,189.52 -29.16,51.02 -29.16,109.34 -29.16,109.34 0,0 -14.57,-14.57 -7.28,-80.17 7.28,-65.61 21.86,-58.32 7.28,-145.78 -14.57,-87.48 -7.28,-123.92 7.29,-182.23 14.58,-58.31 58.32,-153.07 58.32,-153.07 0,0 -116.63,145.78 -116.63,225.96 0,80.18 0,182.23 0,225.96 0,43.74 29.15,87.47 -14.58,123.92 -43.74,36.45 -21.86,145.78 -21.86,145.78l0 0 -7.29 21.86 0 0z"/>
    <path class="fil3" d="M1707.71 1302.1c0,0 7.29,-87.46 14.58,-116.61 7.29,-29.15 14.57,-145.78 14.57,-189.52 0,-43.74 -29.15,-131.21 -72.88,-160.36 -43.74,-29.16 -7.29,-87.47 -29.16,-131.21 -21.86,-43.74 -102.04,-65.59 -102.04,-65.59l0 0 -72.89 -36.45 -36.45 72.9 0 0c0,0 80.18,-21.87 102.04,-7.3 21.87,14.58 51.03,80.18 43.74,109.34 -7.29,29.15 0,94.75 72.89,145.78 72.89,51.02 58.32,138.48 51.03,174.94 0,0 -21.87,-72.9 -43.74,-94.76 -21.87,-21.86 -80.18,-65.6 -80.18,-94.75 0,-29.16 -43.74,-131.2 -58.31,-160.36 -14.58,-29.15 -109.34,-58.31 -109.34,-58.31l0 0 -43.74 29.15 0 0c0,0 0,43.74 58.31,51.02 58.32,7.3 94.76,43.74 94.76,87.48 0,43.73 21.86,102.04 58.31,145.77 36.45,43.74 102.04,131.21 102.04,131.21 0,0 21.87,58.32 7.29,87.47 -14.57,29.15 -14.57,72.88 -14.57,72.88l0 0 43.73 7.28 0 0z"/>
    <path class="fil3" d="M2127.29 1348.75c0.63,-22.34 -4.79,-48.01 -18.69,-75.81l0 0 -36.45 -21.86 0 0c0,0 -36.44,21.86 -21.86,43.74 14.58,21.87 36.45,58.32 21.86,80.18 -14.57,21.87 -58.31,36.45 -58.31,36.45 0,0 36.45,36.45 72.89,14.58 22.55,-13.53 39.52,-41.01 40.55,-77.27l0 0 0 0z"/>
    <path class="fil3" d="M854.9 522.18c0,0 -58.31,-21.86 -94.75,7.29 -36.45,29.15 -87.47,43.74 -123.92,29.15 -36.45,-14.58 -80.18,-29.15 -80.18,-29.15 0,0 43.74,29.15 109.34,-21.87 65.6,-51.02 182.23,-29.15 189.51,14.58l0 0 0 0z"/>
    <path class="fil3" d="M942.37 514.88c0,0 29.15,36.45 87.47,21.87 58.31,-14.58 109.33,-43.74 109.33,-43.74 0,0 -65.6,21.86 -102.04,0 -36.45,-21.87 -102.04,-29.15 -94.75,21.86l0 0 0 0z"/>
    <path class="fil3" d="M1802.47 405.55c0,0 -109.34,-116.63 -153.07,-94.75 -43.74,21.86 -123.92,7.29 -174.94,-14.58 -51.03,-21.86 -189.52,-29.15 -233.26,0 -43.73,29.15 -123.91,-87.46 -160.35,-29.15 -36.45,58.31 14.57,-72.89 14.57,-72.89 0,0 116.63,51.02 145.77,36.45 29.16,-14.58 123.92,-29.15 218.68,-14.58 64.43,9.91 65.6,43.74 138.49,43.74 72.89,0 182.23,80.18 204.1,145.78l0 0 0 0z"/>
    <path class="fil3" d="M986.1 259.77c0,0 -58.32,0 -80.18,21.87 -21.87,21.86 -123.92,14.57 -145.78,14.57 -21.86,0 -116.63,29.15 -116.63,29.15 0,0 -172.51,58.32 -201.66,94.76 0,0 63.17,-65.6 106.91,-102.04 43.73,-36.45 123.91,-29.16 153.06,-58.32 29.16,-29.15 58.32,-43.74 94.76,-36.45 36.45,7.29 211.38,-51.02 189.52,36.45l0 0 0 0z"/>
    <path class="fil3" d="M1182.9 92.12c30.32,20.22 -182.23,0 -233.25,7.28 -51.02,7.29 -160.35,21.87 -160.35,21.87l0 0 87.46 -51.03 0 0c0,0 284.27,7.29 306.14,21.87l0 0 0 0z"/>
    <path class="fil3" d="M1547.35 106.7c0,0 -218.67,-58.31 -247.83,-51.02 -29.15,7.28 -94.76,0 -94.76,0 0,0 87.48,-21.87 131.21,-14.58 43.74,7.29 160.36,21.86 160.36,21.86l0 0 51.03 43.74 0 0z"/>
   </g>
  </g>
 </g>
</svg>
